<svg
 xmlns="http://www.w3.org/2000/svg"
 xmlns:xlink="http://www.w3.org/1999/xlink"
 width="606px" height="248px">
<path fill-rule="evenodd"  fill="rgb(0, 0, 0)"
 d="M574.383,217.134 C553.649,237.414 529.767,247.554 502.727,247.554 C482.220,247.554 463.741,240.910 447.295,227.612 C431.293,214.319 423.297,195.729 423.297,171.842 C423.297,143.450 433.659,118.892 454.393,98.158 C474.895,77.656 498.671,67.400 525.711,67.400 C538.777,67.400 551.283,70.104 563.229,75.512 C575.619,81.147 585.817,90.046 593.818,102.214 C601.814,114.382 605.817,128.356 605.817,144.126 C605.817,172.518 595.339,196.854 574.383,217.134 ZM550.554,117.593 C543.229,109.819 533.596,105.932 521.655,105.932 C506.329,105.932 493.485,112.016 483.123,124.184 C472.756,136.130 467.575,150.437 467.575,167.110 C467.575,179.732 471.293,189.872 478.729,197.530 C486.165,205.193 495.740,209.022 507.459,209.022 C522.104,209.022 534.721,203.054 545.315,191.108 C556.131,178.940 561.539,164.860 561.539,148.858 C561.539,135.792 557.874,125.367 550.554,117.593 ZM357.387,148.182 L407.073,212.064 C410.675,216.347 412.481,221.417 412.481,227.274 C412.481,233.136 410.506,237.868 406.566,241.470 C402.621,245.077 397.609,246.878 391.525,246.878 C384.765,246.878 379.130,243.952 374.625,238.090 L325.953,173.870 L302.969,192.798 L298.237,227.274 C297.561,232.682 294.968,237.303 290.463,241.132 C285.953,244.966 280.661,246.878 274.577,246.878 C268.039,246.878 262.858,244.232 259.029,238.935 C255.195,233.643 253.843,227.612 254.973,220.852 L282.689,23.460 C283.587,17.830 286.069,13.151 290.125,9.433 C294.181,5.715 299.135,3.856 304.997,3.856 C311.757,3.856 317.218,6.507 321.390,11.799 C325.557,17.096 327.078,23.122 325.953,29.882 L310.405,140.408 L386.793,74.498 C391.298,70.442 396.479,68.414 402.341,68.414 C407.522,68.414 411.747,70.220 415.016,73.822 C418.280,77.429 419.917,81.823 419.917,87.004 C419.917,93.088 417.435,98.274 412.481,102.552 L357.387,148.182 ZM239.763,44.416 C233.901,44.416 228.720,42.219 224.215,37.825 C219.705,33.431 217.455,28.308 217.455,22.446 C217.455,16.589 219.705,11.461 224.215,7.067 C228.720,2.673 233.901,0.476 239.763,0.476 C245.847,0.476 251.139,2.673 255.649,7.067 C260.154,11.461 262.409,16.589 262.409,22.446 C262.409,28.308 260.154,33.431 255.649,37.825 C251.139,42.219 245.847,44.416 239.763,44.416 ZM230.299,67.062 C236.832,67.062 242.298,69.597 246.692,74.667 C251.086,79.737 252.829,85.430 251.931,91.736 L232.665,228.626 C231.762,234.034 229.285,238.544 225.229,242.146 C221.173,245.748 216.441,247.554 211.033,247.554 C204.273,247.554 198.696,245.019 194.302,239.949 C189.908,234.879 188.160,229.080 189.063,222.542 L208.667,85.990 C209.343,80.582 211.762,76.077 215.934,72.470 C220.101,68.868 224.891,67.062 230.299,67.062 ZM167.769,228.626 C166.866,234.034 164.273,238.544 159.995,242.146 C155.712,245.748 150.869,247.554 145.461,247.554 C138.923,247.554 133.462,245.019 129.068,239.949 C124.674,234.879 122.926,228.964 123.829,222.204 L124.167,218.824 C121.685,225.362 115.490,231.784 105.577,238.090 C95.659,244.401 83.829,247.554 70.087,247.554 C51.159,247.554 34.819,241.132 21.077,228.288 C7.103,215.444 0.121,197.192 0.121,173.532 C0.121,145.140 9.358,120.355 27.837,99.172 C46.311,77.994 68.619,67.400 94.761,67.400 C106.929,67.400 117.180,70.051 125.519,75.343 C133.853,80.640 139.150,87.569 141.405,96.130 L143.095,85.990 C143.993,80.809 146.528,76.357 150.700,72.639 C154.867,68.921 159.541,67.062 164.727,67.062 C171.709,67.062 177.402,69.597 181.796,74.667 C186.190,79.737 187.933,85.652 187.035,92.412 L167.769,228.626 ZM125.012,116.241 C117.914,108.921 108.730,105.256 97.465,105.256 C82.593,105.256 70.087,111.340 59.947,123.508 C49.807,135.227 44.737,149.534 44.737,166.434 C44.737,179.732 48.455,190.210 55.891,197.868 C63.327,205.531 72.791,209.360 84.283,209.360 C99.377,209.360 111.661,203.276 121.125,191.108 C130.811,179.167 135.659,164.744 135.659,147.844 C135.659,134.102 132.110,123.566 125.012,116.241 Z"/>
</svg>
