<svg
 xmlns="http://www.w3.org/2000/svg"
 xmlns:xlink="http://www.w3.org/1999/xlink"
 width="628px" height="183px">
<path fill-rule="evenodd"  fill="rgb(0, 0, 0)"
 d="M595.354,151.472 C573.944,171.530 549.835,181.554 523.022,181.554 C502.288,181.554 483.587,174.910 466.914,161.612 C450.463,148.092 442.240,129.391 442.240,105.504 C442.240,77.112 452.718,52.665 473.674,32.158 C494.852,11.656 518.966,1.400 546.006,1.400 C566.962,1.400 585.663,8.276 602.114,22.018 C618.787,35.992 627.126,54.920 627.126,78.802 C627.126,107.421 616.532,131.646 595.354,151.472 ZM564.596,57.846 C558.734,51.313 550.849,48.044 540.936,48.044 C528.092,48.044 517.498,53.230 509.164,63.592 C500.598,74.186 496.320,86.238 496.320,99.758 C496.320,110.352 499.304,118.855 505.277,125.277 C511.245,131.699 519.077,134.910 528.768,134.910 C540.709,134.910 551.076,129.840 559.864,119.700 C568.874,109.338 573.384,97.619 573.384,84.548 C573.384,73.283 570.453,64.384 564.596,57.846 ZM382.752,81.506 L425.678,138.290 C429.956,143.249 432.100,149.444 432.100,156.880 C432.100,164.094 429.676,169.893 424.833,174.287 C419.985,178.681 413.848,180.878 406.412,180.878 C398.522,180.878 391.762,177.387 386.132,170.400 L343.882,112.264 L326.644,126.460 L322.250,157.218 C321.120,163.978 317.856,169.613 312.448,174.118 C307.040,178.628 300.618,180.878 293.182,180.878 C285.292,180.878 279.039,177.667 274.423,171.245 C269.802,164.823 268.170,157.334 269.522,148.768 L287.886,24.516 C288.784,17.756 291.715,12.126 296.674,7.616 C301.628,3.111 307.601,0.856 314.588,0.856 C322.700,0.856 329.344,4.125 334.530,10.658 C339.711,17.196 341.628,24.632 340.276,32.966 L335.094,63.930 L399.990,9.512 C405.171,4.780 411.255,2.414 418.242,2.414 C424.548,2.414 429.676,4.611 433.621,9.005 C437.561,13.399 439.536,18.754 439.536,25.060 C439.536,31.820 436.605,37.904 430.748,43.312 L382.752,81.506 ZM246.200,159.246 C245.297,165.784 242.313,171.245 237.243,175.639 C232.173,180.033 226.369,182.230 219.836,182.230 C211.724,182.230 204.964,179.135 199.556,172.935 C194.148,166.740 192.004,159.700 193.134,151.810 L211.724,23.370 C212.622,16.837 215.611,11.371 220.681,6.977 C225.751,2.583 231.550,0.386 238.088,0.386 C246.200,0.386 252.960,3.544 258.368,9.850 C263.776,15.934 265.804,22.921 264.452,30.806 L246.200,159.246 ZM171.840,159.246 C170.937,165.557 167.895,170.965 162.714,175.470 C157.528,179.975 151.560,182.230 144.800,182.230 C138.040,182.230 132.178,180.086 127.224,175.808 C122.265,171.530 119.334,166.122 118.436,159.584 C114.602,165.446 108.238,170.569 99.339,174.963 C90.435,179.357 80.580,181.554 69.764,181.554 C51.512,181.554 35.399,175.248 21.430,162.626 C7.683,149.782 0.812,131.530 0.812,107.870 C0.812,79.705 9.938,54.920 28.190,33.510 C46.891,12.105 68.972,1.400 94.438,1.400 C105.703,1.400 115.056,3.766 122.492,8.498 C129.928,13.230 134.433,19.092 136.012,26.074 L136.688,23.370 C137.813,17.064 140.855,11.709 145.814,7.315 C150.768,2.921 156.514,0.724 163.052,0.724 C171.613,0.724 178.600,3.766 184.008,9.850 C189.416,15.934 191.444,23.148 190.092,31.482 L171.840,159.246 ZM120.971,56.325 C115.225,50.357 107.731,47.368 98.494,47.368 C85.872,47.368 75.510,52.438 67.398,62.578 C59.286,72.269 55.230,84.437 55.230,99.082 C55.230,110.574 58.214,119.531 64.187,125.953 C70.155,132.375 77.876,135.586 87.340,135.586 C100.406,135.586 110.662,130.516 118.098,120.376 C125.756,110.463 129.590,98.184 129.590,83.534 C129.590,71.366 126.717,62.298 120.971,56.325 Z"/>
</svg>
