<?xml version="1.0" standalone="no"?>
<!DOCTYPE svg PUBLIC "-//W3C//DTD SVG 20010904//EN"
 "http://www.w3.org/TR/2001/REC-SVG-20010904/DTD/svg10.dtd">
<svg version="1.0" xmlns="http://www.w3.org/2000/svg"
 width="750.000000pt" height="750.000000pt" viewBox="0 0 750.000000 750.000000"
 preserveAspectRatio="xMidYMid meet">

<g transform="translate(0.000000,750.000000) scale(0.100000,-0.100000)"
fill="#e83390" stroke="none">
<path d="M3332 7409 c-1380 -37 -2152 -184 -2617 -498 -165 -111 -300 -253
-367 -385 -117 -232 -250 -843 -302 -1391 -42 -433 -54 -1102 -37 -1955 21
-1075 43 -1406 113 -1705 122 -526 451 -892 972 -1080 335 -121 948 -228 1591
-279 239 -19 752 -38 911 -34 l120 3 -186 389 c-195 409 -224 457 -313 513
-65 41 -116 54 -252 63 -173 12 -620 49 -670 55 -490 61 -761 128 -995 246
-97 48 -148 93 -208 183 -166 248 -262 710 -317 1526 -32 470 -30 945 5 1605
36 654 96 987 223 1230 56 106 181 234 291 298 195 114 468 176 926 211 372
29 986 57 1279 59 l295 2 13 -53 13 -52 -41 -52 c-88 -112 -124 -214 -123
-358 1 -118 23 -199 75 -282 175 -273 603 -272 927 4 l62 53 63 -60 c199 -190
493 -207 711 -40 27 20 49 35 50 33 2 -2 18 -31 35 -64 110 -208 329 -383 540
-430 65 -15 86 -15 146 -5 95 16 165 50 230 112 56 53 125 170 125 213 1 52
20 -18 38 -144 55 -364 86 -943 87 -1585 0 -415 -8 -589 -41 -970 -54 -630
-150 -1033 -296 -1251 -62 -92 -111 -135 -218 -189 -222 -112 -502 -180 -985
-240 -52 -7 -503 -43 -670 -55 -176 -12 -229 -32 -315 -119 -60 -61 -73 -83
-169 -286 -58 -121 -142 -298 -188 -394 l-84 -174 323 6 c660 14 1201 65 1716
163 583 110 890 240 1149 487 275 264 414 584 467 1082 67 623 86 2573 31
3205 -54 630 -184 1250 -315 1511 -65 127 -202 271 -365 380 -411 278 -1038
419 -2125 479 -207 11 -867 31 -975 28 -38 -1 -197 -5 -353 -9z m1058 -413
c196 -68 358 -229 476 -471 30 -62 54 -117 54 -123 0 -6 -15 -20 -34 -31 -41
-26 -105 -94 -141 -151 -60 -95 -87 -231 -65 -334 12 -57 11 -58 -17 -88 -15
-16 -55 -51 -88 -78 -296 -237 -669 -220 -790 35 -80 170 -45 378 87 520 l55
59 -24 75 c-87 270 15 560 214 611 62 15 194 4 273 -24z m2039 -416 c169 -28
266 -130 278 -292 10 -138 -40 -271 -147 -390 l-51 -58 17 -57 c12 -39 18 -92
19 -163 0 -98 -2 -110 -32 -172 -75 -159 -230 -236 -392 -194 -189 48 -369
204 -478 412 l-47 91 22 50 c36 83 48 181 34 264 -7 39 -22 94 -34 122 l-22
50 50 44 c72 64 230 168 316 207 86 40 200 74 290 85 90 12 106 12 177 1z
m-1097 -230 c80 -30 159 -104 200 -188 30 -61 33 -74 33 -162 0 -86 -3 -101
-32 -162 -79 -168 -253 -259 -436 -229 -144 24 -250 100 -305 219 -22 48 -27
71 -27 142 0 76 4 93 34 157 53 115 158 203 281 239 62 19 182 11 252 -16z"/>
<path d="M1858 4457 c-31 -14 -288 -248 -378 -343 -65 -70 -110 -150 -110
-196 0 -31 24 -63 139 -181 90 -93 124 -117 164 -117 30 0 94 45 170 119 l58
56 62 -67 c73 -79 119 -108 168 -108 41 0 57 11 176 118 113 101 155 187 120
249 -16 29 -166 195 -289 319 -131 134 -217 180 -280 151z"/>
<path d="M5428 4452 c-24 -10 -246 -213 -350 -320 -60 -61 -96 -108 -114 -146
-39 -86 -33 -103 89 -223 106 -105 168 -153 197 -153 19 0 90 51 175 124 l56
49 82 -80 c45 -45 92 -84 104 -87 66 -20 201 60 278 165 52 70 71 129 59 176
-10 37 -261 318 -361 405 -90 79 -167 111 -215 90z"/>
<path d="M2963 3220 c-53 -32 -63 -64 -63 -200 0 -136 10 -168 63 -200 31 -19
55 -20 727 -20 672 0 696 1 727 20 53 32 63 64 63 200 0 136 -10 168 -63 200
-31 19 -55 20 -727 20 -672 0 -696 -1 -727 -20z"/>
</g>
</svg>
