<svg version="1.0" xmlns="http://www.w3.org/2000/svg"
  width="750.000000pt" height="750.000000pt" viewBox="0 0 750.000000 750.000000"
  preserveAspectRatio="xMidYMid meet">

 <g transform="translate(0.000000,750.000000) scale(0.100000,-0.100000)"
 fill="#e83390" stroke="none">
 <path id="outline" d="M3332 7409 c-1380 -37 -2152 -184 -2617 -498 -165 -111 -300 -253
 -367 -385 -117 -232 -250 -843 -302 -1391 -42 -433 -54 -1102 -37 -1955 21
 -1075 43 -1406 113 -1705 122 -526 451 -892 972 -1080 335 -121 948 -228 1591
 -279 239 -19 752 -38 911 -34 l120 3 -186 389 c-195 409 -224 457 -313 513
 -65 41 -116 54 -252 63 -173 12 -620 49 -670 55 -490 61 -761 128 -995 246
 -97 48 -148 93 -208 183 -166 248 -262 710 -317 1526 -32 470 -30 945 5 1605
 36 654 96 987 223 1230 56 106 181 234 291 298 195 114 468 176 926 211 372
 29 986 57 1279 59 l295 2 13 -53 13 -52 -41 -52 c-88 -112 -124 -214 -123
 -358 1 -118 23 -199 75 -282 175 -273 603 -272 927 4 l62 53 63 -60 c199 -190
 493 -207 711 -40 27 20 49 35 50 33 2 -2 19 -33 40 -71 117 -212 324 -376 535
 -423 65 -15 86 -15 146 -5 95 16 165 50 230 112 56 53 125 170 125 213 1 52
 20 -18 38 -144 55 -364 86 -943 87 -1585 0 -415 -8 -589 -41 -970 -54 -630
 -150 -1033 -296 -1251 -62 -92 -111 -135 -218 -189 -222 -112 -502 -180 -985
 -240 -52 -7 -503 -43 -670 -55 -176 -12 -229 -32 -315 -119 -60 -61 -73 -83
 -169 -286 -58 -121 -142 -298 -188 -394 l-84 -174 323 6 c660 14 1201 65 1716
 163 583 110 890 240 1149 487 275 264 414 584 467 1082 67 623 86 2573 31
 3205 -54 630 -184 1250 -315 1511 -65 127 -202 271 -365 380 -411 278 -1038
 419 -2125 479 -207 11 -867 31 -975 28 -38 -1 -197 -5 -353 -9z m1043 -489
 c186 -71 335 -231 445 -479 l38 -86 -43 -46 c-89 -96 -132 -192 -142 -322 l-6
 -77 -70 -66 c-160 -151 -329 -224 -495 -212 -122 9 -202 62 -251 168 -22 48
 -26 68 -26 155 0 90 3 106 29 159 16 33 58 90 96 130 l67 70 -31 85 c-28 79
 -31 97 -31 206 0 102 4 129 24 178 28 72 73 124 126 149 54 26 185 20 270 -12z
 m2131 -445 c95 -46 129 -116 122 -246 -6 -103 -52 -198 -143 -297 l-65 -70 26
 -92 c60 -209 -2 -383 -155 -435 -24 -8 -61 -15 -82 -15 -62 0 -164 38 -243 90
 -119 80 -201 180 -286 350 l-43 85 12 61 c15 81 14 126 -4 199 l-15 60 58 53
 c256 236 625 352 818 257z m-1161 -174 c106 -52 173 -153 182 -275 9 -103 -15
 -163 -89 -230 -34 -31 -87 -69 -117 -84 -50 -24 -67 -27 -156 -27 -93 0 -105
 2 -167 33 -44 21 -84 51 -118 88 -73 81 -83 105 -78 184 19 261 308 427 543
 311z"/>
 <path id="left-eye" d="M1858 4457 c-31 -14 -288 -248 -378 -343 -65 -70 -110 -150 -110
 -196 0 -31 24 -63 139 -181 90 -93 124 -117 164 -117 30 0 94 45 170 119 l58
 56 62 -67 c73 -79 119 -108 168 -108 41 0 57 11 176 118 113 101 155 187 120
 249 -16 29 -166 195 -289 319 -131 134 -217 180 -280 151z"/>
 <path id="right-eye" d="M5428 4452 c-24 -10 -246 -213 -350 -320 -60 -61 -96 -108 -114 -146
 -39 -86 -33 -103 89 -223 106 -105 168 -153 197 -153 19 0 90 51 175 124 l56
 49 82 -80 c45 -45 92 -84 104 -87 66 -20 201 60 278 165 52 70 71 129 59 176
 -10 37 -261 318 -361 405 -90 79 -167 111 -215 90z"/>
 <path id="mouth" d="M2963 3220 c-53 -32 -63 -64 -63 -200 0 -136 10 -168 63 -200 31 -19
 55 -20 727 -20 672 0 696 1 727 20 53 32 63 64 63 200 0 136 -10 168 -63 200
 -31 19 -55 20 -727 20 -672 0 -696 -1 -727 -20z"/>
 </g>
 </svg>